<svg width="125" height="27" viewBox="0 0 125 27" fill="none" xmlns="http://www.w3.org/2000/svg"><g clip-path="url(#clip0_390_193)"><path d="M61.787 8.402c-4.876 0-8.282 3.743-8.282 9.102s3.393 9.139 8.25 9.139c4.856 0 8.248-3.812 8.248-9.067 0-5.254-3.455-9.174-8.216-9.174zm0 15.795c-3.297 0-5.69-2.814-5.69-6.693 0-3.88 2.393-6.656 5.69-6.656 3.297 0 5.622 2.83 5.622 6.728 0 3.9-2.365 6.621-5.622 6.621zm39.93-15.795c-2.292 0-4.19 1.092-5.387 3.086v-.551c-.059-1.536-.582-2.282-1.599-2.282-.435 0-.994.2-.994.412v17.528l2.66.01V14.318c.92-2.137 2.685-3.361 4.85-3.361 2.513 0 3.982 1.802 4.07 4.954v10.683l2.662.01v-1.492c0-.038.007-.07.007-.108v-9.016c0-4.75-2.343-7.587-6.267-7.587h-.002zM43.32 12.48c2.139-1.558 2.392-3.816 2.392-5.101 0-3.153-1.414-4.751-2.176-5.373C41.76.488 39.329.37 37.988.37h-4.35v24.307c0 .917.729 1.661 1.628 1.661h4.39c1.669 0 3.88-.078 5.803-1.713 1.304-1.09 2.465-3.114 2.465-5.606s-1.231-5.645-4.605-6.54zm-7-9.385h2.103c.761 0 4.678.078 4.678 4.36 0 4.01-3.335 4.322-4.75 4.322H36.32V3.096zm7.324 19.427c-1.161.974-2.684 1.09-4.243 1.09h-3.083v-9.266h2.757c1.921 0 3.191.234 4.098.78.942.544 2.067 1.751 2.067 3.815 0 1.558-.654 2.843-1.596 3.583v-.002zm8.882-20.479C52.548 1.03 51.76.19 50.768.167c-.992-.023-1.816.78-1.838 1.792-.023 1.013.764 1.853 1.757 1.876.993.023 1.816-.78 1.839-1.792zM91.74 9.06c0-.213-.56-.412-.994-.412-1.017 0-1.54.746-1.6 2.281v1.322c-1.188-2.255-3.468-3.4-6.044-3.4-4.46 0-7.598 3.973-7.598 9.093s3.138 9.058 7.598 9.058c2.576 0 4.855-1.11 6.045-3.4v3.043l2.592.007V9.063l.001-.004zm-8.075 15.29c-3.204 0-5.583-2.72-5.583-6.408s2.38-6.444 5.583-6.444c3.203 0 5.484 2.793 5.484 6.444 0 3.652-2.412 6.409-5.484 6.409zM74.1 2.496C74.04.96 73.516.214 72.5.214c-.433 0-.995.2-.995.412v25.948H74.1V2.496zm-21.998 8.441c-.06-1.536-.58-2.282-1.6-2.282-.433 0-.994.2-.994.412v17.288H52.1V10.936zm65.422-2.535c-4.663 0-8.046 3.874-8.046 9.212 0 5.337 3.406 9.03 8.281 9.03 2.137 0 4.162-.7 5.418-1.867.972-.843 1.319-1.7 1.319-2.222 0-.521-.258-.945-.714-1.262-.395-.279-.577-.206-.705-.095-1.246 1.774-2.31 3.03-5.285 3.036-3.127.007-5.428-2.273-5.724-5.67a2.045 2.045 0 01-.031-.358h12.003c.683 0 .96-.276.96-.953V17c0-5.222-2.935-8.598-7.476-8.598zm-5.402 7.681c.478-3.202 2.635-5.343 5.402-5.343 2.767 0 4.668 2.093 4.844 5.343h-10.246z" fill="#003B61"/><path d="M7.91 24.211s-3.582-1.02-4.675-3.715c-1.092-2.695-1.554-6.445-3.237-7.504 1.986.122 5.117.866 7.036 2.65 1.92 1.782 3.301 5.842 1.463 8.288-.06-.343-1.42-5.998-4.635-8.259.624.951 3.39 3.646 4.047 8.54z" fill="#58B6B2"/><path d="M11.73 24.741s-.021-6.829 4.025-10.077c4.045-3.248 10.187-5.9 11.165-9.39.764 3.568 1.03 9.466-1.06 13.732-2.092 4.267-8.312 8.692-13.366 6.639.554-.27 9.495-5.444 11.764-12.232-1.31 1.567-4.534 7.776-12.528 11.33v-.002z" fill="#003B61"/><path d="M7.358 6.744C6.286 5.472 7.01 4.178 7.69 4.67l4.079 3.115c.731.558 1.76.943 2.847.853 2.248-.185 6.303-3.252 6.303-3.252.598-.542 2.018.108.492 2.1 0 0-1.282 2.216-1.902 4.086a4.89 4.89 0 00-.22 2.068l.675 2.17c.12.645.024 1.619-.308 2.399-.492 1.299-1.431 3.03-1.726 4.093-.125.447.071.625.168.986.097.36-.386.788-.754.403-.367-.386-1.476-.712-1.197-1.867.024-.102.104-.29.09-.798-.057-1.775-.39-3.777-1.582-3.676-.755.067-1.029.763-1.188 1.488 0 0-.542 1.663-.584 1.85-.042.187-.113.751-.523 1.082l-.993.938c-.315.27-.794.014-.754-.405l.406-1.166c.036-.403-.283-1.186-.427-1.564l-.414-1.085c-1.154-2.377-1.055-3.982-.273-6.554-.246-1.919-2.544-5.189-2.544-5.189h-.002z" fill="#EFB8A8"/><path d="M17.055 6.413c1.425-1.54 1.374-3.951-.115-5.385-1.489-1.434-3.851-1.349-5.277.191-1.425 1.54-1.374 3.951.115 5.386 1.488 1.434 3.851 1.348 5.277-.192z" fill="#EFB8A8"/></g><defs><clipPath id="clip0_390_193"><path fill="#fff" d="M0 0h125v27H0z"/></clipPath></defs></svg>