<?xml version="1.0" encoding="UTF-8" standalone="no"?>
<!-- Created with Inkscape (http://www.inkscape.org/) -->

<svg
   width="167.32324mm"
   height="89.984001mm"
   viewBox="0 0 167.32325 89.984"
   version="1.1"
   id="svg3217"
   inkscape:version="1.3 (0e150ed6c4, 2023-07-21)"
   xml:space="preserve"
   sodipodi:docname="SM Hypermarket (2022, stacked).svg"
   xmlns:inkscape="http://www.inkscape.org/namespaces/inkscape"
   xmlns:sodipodi="http://sodipodi.sourceforge.net/DTD/sodipodi-0.dtd"
   xmlns="http://www.w3.org/2000/svg"
   xmlns:svg="http://www.w3.org/2000/svg"><sodipodi:namedview
     id="namedview3219"
     pagecolor="#aaaaaa"
     bordercolor="#eeeeee"
     borderopacity="1"
     inkscape:showpageshadow="true"
     inkscape:pageopacity="0"
     inkscape:pagecheckerboard="true"
     inkscape:deskcolor="#505050"
     inkscape:document-units="mm"
     showgrid="false"
     inkscape:zoom="0.61580177"
     inkscape:cx="839.55588"
     inkscape:cy="-75.511312"
     inkscape:window-width="1920"
     inkscape:window-height="991"
     inkscape:window-x="-9"
     inkscape:window-y="-9"
     inkscape:window-maximized="1"
     inkscape:current-layer="layer1" /><defs
     id="defs3214"><clipPath
       id="clipPath18"
       clipPathUnits="userSpaceOnUse"><path
         style="clip-rule:evenodd"
         id="path16"
         d="M 0,6.1035e-5 H 365.04 V 370.08006 H 0 Z" /></clipPath><clipPath
       id="clipPath30"
       clipPathUnits="userSpaceOnUse"><path
         style="clip-rule:evenodd"
         id="path28"
         d="M 0,6.1035e-5 H 365.04 V 370.08006 H 0 Z" /></clipPath><clipPath
       id="clipPath18-9"
       clipPathUnits="userSpaceOnUse"><path
         style="clip-rule:evenodd"
         id="path16-6"
         d="M 0,2.2888e-5 H 432 V 72.000023 H 0 Z" /></clipPath><clipPath
       id="clipPath18-2"
       clipPathUnits="userSpaceOnUse"><path
         style="clip-rule:evenodd"
         id="path16-1"
         d="M -6.1035e-5,4.5776e-5 H 791.99994 V 144.00005 H -6.1035e-5 Z" /></clipPath></defs><g
     inkscape:label="Layer 1"
     inkscape:groupmode="layer"
     id="layer1"
     transform="translate(-124.19833,-190.9941)"><g
       id="g4"
       transform="matrix(2.7455069,0,0,2.7455069,-1109.6174,-328.63014)"><g
         style="fill:none"
         id="g3079-4-1-0"
         transform="matrix(0.20861957,0,0,0.20861957,469.38451,189.26346)"><path
           d="M 99.9998,50.0002 C 99.9998,22.3858 77.6142,1.74609e-4 50,1.74609e-4 22.3857,1.74609e-4 0,22.3858 0,50.0002 0,77.6143 22.3857,100 50,100 77.6142,100 99.9998,77.6143 99.9998,50.0002 Z"
           fill="#0030ff"
           id="path3067-3-5-9"
           style="font-variation-settings:normal;opacity:1;vector-effect:none;fill:#0030ff;fill-opacity:1;stroke-width:10.0772;stroke-linecap:butt;stroke-linejoin:miter;stroke-miterlimit:4;stroke-dasharray:none;stroke-dashoffset:0;stroke-opacity:1;-inkscape-stroke:none;paint-order:stroke fill markers;stop-color:#000000;stop-opacity:1" /><path
           d="m 63.4832,58.4836 c -3.2936,0 -7.0101,-2.25 -8.8281,-7.5295 v 31.2386 h 4.6168 V 61.6496 c 1.4382,0.9615 2.9148,1.2173 4.2162,1.2173 1.3014,0 2.7779,-0.2558 4.2164,-1.2173 v 20.5431 h 4.6168 V 50.9541 c -1.8182,5.2795 -5.5446,7.5295 -8.8381,7.5295 z M 76.0985,17.1413 v 65.0514 h 4.6168 V 17.1413 Z M 26.0778,64.9679 c 0.205,1.4204 0.707,2.6022 1.387,3.5639 0.9223,1.3044 2.0643,1.8295 3.586,1.7935 2.2471,-0.0531 3.3928,-1.9863 3.5133,-4.3848 0.1263,-2.5123 -0.7428,-5.2561 -2.2917,-7.4022 -0.7101,-0.9839 -1.8596,-2.2496 -3.6073,-3.7908 -1.7771,2.766 -3.1535,6.2975 -2.5873,10.2204 z M 46.2611,17.1413 h 4.6166 v 65.0514 h -4.6166 v -9.5361 c -1.9205,5.0615 -5.7455,8.6438 -10.8008,10.1007 -1.0298,0.2971 -2.5391,0.5414 -4.3032,0.5415 -2.8351,0 -6.3292,-0.6312 -9.5544,-2.6918 -3.0112,-1.9235 -6.9142,-5.7092 -7.954,-13.3069 -1.0135,-7.4069 1.9602,-13.8248 5.2704,-18.2827 l 3.3413,2.0216 c -2.8045,4.4127 -4.9808,8.9794 -4.0924,15.5553 0.5934,4.3923 2.7131,8.065 5.9239,10.1163 2.5543,1.6317 5.2465,1.9743 7.0552,1.9743 1.1112,0 2.2166,-0.1349 3.0328,-0.3703 3.69,-1.0636 6.4759,-3.7322 7.8447,-7.5139 1.8715,-5.1716 0.8662,-11.5826 -2.6238,-16.7314 -1.9544,-2.8832 -6.4077,-6.8763 -9.0731,-9.2665 -0.7299,-0.6544 -1.3601,-1.2196 -1.6656,-1.5198 -4.6791,-4.5979 -6.4047,-8.3986 -5.7706,-12.7081 0.4049,-2.751 2.5755,-5.1467 5.1617,-5.6963 2.2303,-0.4736 4.4568,0.0157 6.4391,1.4164 2.8675,2.0264 4.8734,5.6794 5.6181,9.9691 l -3.8223,0.9575 c -0.5916,-3.0203 -2.1191,-7.106 -5.6317,-7.8999 -0.7765,-0.1754 -1.7299,-0.0131 -2.3099,0.4318 -1.4061,1.0782 -1.0796,3.4277 -0.4882,4.8715 0.849,2.0725 2.4709,3.8137 4.0444,5.3602 0.23,0.226 0.8837,0.8114 1.5157,1.3778 3.8172,3.42 7.7193,7.0185 9.8152,10.1199 1.2948,1.9165 2.308,3.9827 3.0275,6.1131 V 34.7234 l -2.8406,0.7115 c -0.9451,-5.1817 -3.151,-9.6572 -6.7604,-12.2078 -2.8594,-2.0207 -6.1055,-2.7201 -9.3879,-2.023 -2.0262,0.4307 -3.9531,1.573 -5.4259,3.2162 -1.4245,1.5893 -2.3732,3.5809 -2.6714,5.6076 -0.818,5.5582 1.2961,10.4724 6.8539,15.9344 0.3674,0.3611 0.9975,0.9259 1.7951,1.6413 2.3664,2.1218 6.771,6.0711 8.4674,8.5736 2.7843,4.1075 3.6482,9.3459 2.2009,13.345 -0.6709,1.8539 -2.1441,4.2363 -5.3528,5.1613 -0.9314,0.2683 -4.2214,0.6525 -7.0251,-1.1386 -2.2614,-1.4446 -3.75,-4.246 -4.2335,-7.5237 -0.4254,-2.8827 -0.1446,-8.2625 3.6747,-13.7957 l 0.1838,-0.2337 c 0.0073,0.0066 0.0142,0.0127 2e-4,0 -1.052,-0.9493 -2.5075,-2.2953 -2.9515,-2.7315 -4.1693,-4.0974 -9.5541,-10.6186 -8.1877,-19.9055 0.911,-6.1898 5.7264,-11.4012 11.7104,-12.6733 4.5104,-0.9591 8.7816,0.0527 12.695,2.7557 3.2286,2.2301 5.8605,5.9476 7.2554,11.2303 z m 17.2221,37.511 c 0.8205,0 2.3443,-0.2803 3.6189,-1.8944 2.4155,-3.0591 5.192,-6.6889 5.192,-35.6166 h -4.5896 c 0,8.6254 -0.299,16.6425 -1.0135,22.2735 -0.9755,7.6851 -2.028,10.6479 -3.1953,10.6479 -1.1675,0 -2.1781,-2.9628 -3.2103,-10.6479 C 59.5298,33.789 59.2719,25.7667 59.2719,17.1413 h -4.5898 c 0,28.9277 2.7238,32.5241 5.1921,35.6166 1.2263,1.5363 2.7884,1.8944 3.609,1.8944 z M 25.7395,51.9918 h -2e-4 c -0.0074,-0.0067 -0.0151,-0.0137 2e-4,0 z"
           fill="#ffffff"
           id="path3069-4-6-2"
           style="fill:#ffffff" /></g><g
         id="g2"
         style="font-variation-settings:normal;opacity:1;vector-effect:none;fill:#0030ff;fill-opacity:1;stroke-width:2.1023;stroke-linecap:butt;stroke-linejoin:miter;stroke-miterlimit:4;stroke-dasharray:none;stroke-dashoffset:0;stroke-opacity:1;-inkscape-stroke:none;paint-order:stroke fill markers;stop-color:#000000;stop-opacity:1"><path
           d="m 449.53138,220.06487 q 0.36735,0.34574 0.91118,0.55463 0.54743,0.20889 1.09125,0.20889 0.33855,0 0.52222,-0.0936 0.18368,-0.0936 0.18368,-0.28092 0,-0.14046 -0.10084,-0.2305 -0.0973,-0.09 -0.29533,-0.11524 l -0.88596,-0.12246 q -0.46821,-0.0648 -0.82115,-0.26291 -0.34935,-0.19808 -0.54744,-0.51862 -0.19448,-0.32413 -0.19448,-0.75271 0,-0.48981 0.26291,-0.85717 0.26651,-0.36735 0.74912,-0.56904 0.4862,-0.20168 1.12727,-0.20168 0.4826,0 0.96522,0.10805 0.48259,0.10804 0.84275,0.29532 v 1.35417 q -0.36015,-0.2485 -0.84995,-0.39617 -0.48621,-0.15126 -0.95801,-0.15126 -0.35295,0 -0.54023,0.09 -0.18728,0.09 -0.18728,0.25571 0,0.13325 0.11885,0.22329 0.11885,0.0864 0.33495,0.11525 l 0.92919,0.12245 q 0.44659,0.0576 0.77432,0.25211 0.33134,0.19448 0.50782,0.50781 0.18007,0.31333 0.18007,0.7167 0,0.49341 -0.26651,0.88598 -0.26291,0.39256 -0.74551,0.61586 -0.479,0.21969 -1.10567,0.21969 -0.52222,0 -1.04804,-0.15487 -0.52222,-0.15846 -0.9544,-0.44298 z"
           id="path1019-9-8-2-6"
           style="font-weight:900;font-size:274.033px;font-family:'Henry Sans';-inkscape-font-specification:'Henry Sans Heavy';font-variation-settings:normal;vector-effect:none;fill:#0030ff;fill-opacity:1;stroke-width:2.1023;stroke-linecap:butt;stroke-linejoin:miter;stroke-miterlimit:4;stroke-dasharray:none;stroke-dashoffset:0;stroke-opacity:1;-inkscape-stroke:none;paint-order:stroke fill markers;stop-color:#000000;stop-opacity:1" /><path
           d="m 457.02706,219.80916 0.88236,-2.89922 h 1.99525 v 5.04212 h -1.42621 v -3.36382 l -1.07325,3.29179 h -0.78873 l -1.09847,-3.29899 v 3.37102 h -1.4262 v -5.04212 h 2.06007 z"
           id="path1021-0-3-4-5"
           style="font-weight:900;font-size:274.033px;font-family:'Henry Sans';-inkscape-font-specification:'Henry Sans Heavy';font-variation-settings:normal;display:inline;vector-effect:none;fill:#0030ff;fill-opacity:1;stroke-width:2.1023;stroke-linecap:butt;stroke-linejoin:miter;stroke-miterlimit:4;stroke-dasharray:none;stroke-dashoffset:0;stroke-opacity:1;-inkscape-stroke:none;paint-order:stroke fill markers;stop-color:#000000;stop-opacity:1" /><path
           d="m 465.01773,219.14291 v -2.23294 h 0.461 v 5.04213 h -0.461 v -2.39141 h -2.91723 v 2.39141 h -0.46099 v -5.04213 h 0.46099 v 2.23294 z"
           id="path2329-6"
           style="font-weight:300;font-size:8.66608px;font-family:'Henry Sans';-inkscape-font-specification:'Henry Sans Light';font-variation-settings:normal;vector-effect:none;fill:#0030ff;fill-opacity:1;stroke-width:2.1023;stroke-linecap:butt;stroke-linejoin:miter;stroke-miterlimit:4;stroke-dasharray:none;stroke-dashoffset:0;stroke-opacity:1;-inkscape-stroke:none;paint-order:stroke fill markers;stop-color:#000000;stop-opacity:1" /><path
           d="m 469.52791,216.90997 h 0.51142 l -1.68551,3.10091 v 1.94122 h -0.461 v -1.94122 l -1.67831,-3.10091 h 0.51862 l 1.40099,2.63631 z"
           id="path2331-0"
           style="font-weight:300;font-size:8.66608px;font-family:'Henry Sans';-inkscape-font-specification:'Henry Sans Light';font-variation-settings:normal;vector-effect:none;fill:#0030ff;fill-opacity:1;stroke-width:2.1023;stroke-linecap:butt;stroke-linejoin:miter;stroke-miterlimit:4;stroke-dasharray:none;stroke-dashoffset:0;stroke-opacity:1;-inkscape-stroke:none;paint-order:stroke fill markers;stop-color:#000000;stop-opacity:1" /><path
           d="m 472.68956,216.90997 q 0.49341,0 0.86797,0.18368 0.37456,0.18368 0.57985,0.52222 0.20888,0.33494 0.20888,0.77793 0,0.44299 -0.20888,0.78153 -0.20529,0.33494 -0.57985,0.51862 -0.37456,0.18367 -0.86797,0.18367 h -1.45501 v 2.07448 h -0.46099 v -5.04213 z m -0.007,2.54988 q 0.35295,0 0.62307,-0.13326 0.27011,-0.13325 0.41777,-0.37456 0.14766,-0.2413 0.14766,-0.55823 0,-0.31693 -0.14766,-0.55824 -0.14766,-0.2413 -0.41777,-0.37455 -0.27012,-0.13326 -0.62307,-0.13326 h -1.44781 v 2.1321 z"
           id="path2333-6"
           style="font-weight:300;font-size:8.66608px;font-family:'Henry Sans';-inkscape-font-specification:'Henry Sans Light';font-variation-settings:normal;vector-effect:none;fill:#0030ff;fill-opacity:1;stroke-width:2.1023;stroke-linecap:butt;stroke-linejoin:miter;stroke-miterlimit:4;stroke-dasharray:none;stroke-dashoffset:0;stroke-opacity:1;-inkscape-stroke:none;paint-order:stroke fill markers;stop-color:#000000;stop-opacity:1" /><path
           d="m 475.65746,219.56069 v 1.97363 h 2.72275 v 0.41778 h -3.18374 v -5.04213 h 3.16933 v 0.41778 h -2.70834 v 1.81516 h 2.3626 v 0.41778 z"
           id="path2335-6"
           style="font-weight:300;font-size:8.66608px;font-family:'Henry Sans';-inkscape-font-specification:'Henry Sans Light';font-variation-settings:normal;vector-effect:none;fill:#0030ff;fill-opacity:1;stroke-width:2.1023;stroke-linecap:butt;stroke-linejoin:miter;stroke-miterlimit:4;stroke-dasharray:none;stroke-dashoffset:0;stroke-opacity:1;-inkscape-stroke:none;paint-order:stroke fill markers;stop-color:#000000;stop-opacity:1" /><path
           d="m 482.35141,221.9521 -1.51264,-2.1321 h -1.10927 v 2.1321 h -0.46099 v -5.04213 h 1.98803 q 0.4718,0 0.82835,0.18368 0.36016,0.18008 0.55824,0.51142 0.19808,0.32773 0.19808,0.75992 0,0.41057 -0.18007,0.7311 -0.17648,0.31694 -0.50782,0.50782 -0.32774,0.18728 -0.75992,0.21249 l 1.52705,2.1357 z m -2.62191,-4.62435 v 2.07447 h 1.54865 q 0.32414,0 0.56904,-0.12965 0.24851,-0.13326 0.38176,-0.37096 0.13686,-0.2377 0.13686,-0.55103 0,-0.30253 -0.13686,-0.53302 -0.13325,-0.2341 -0.38176,-0.36016 -0.2449,-0.12965 -0.56904,-0.12965 z"
           id="path2337-8"
           style="font-weight:300;font-size:8.66608px;font-family:'Henry Sans';-inkscape-font-specification:'Henry Sans Light';font-variation-settings:normal;vector-effect:none;fill:#0030ff;fill-opacity:1;stroke-width:2.1023;stroke-linecap:butt;stroke-linejoin:miter;stroke-miterlimit:4;stroke-dasharray:none;stroke-dashoffset:0;stroke-opacity:1;-inkscape-stroke:none;paint-order:stroke fill markers;stop-color:#000000;stop-opacity:1" /><path
           d="m 486.1483,221.29302 1.70352,-4.38305 h 0.68789 v 5.04213 h -0.45019 v -4.46588 l -1.74674,4.38665 h -0.43579 l -1.64229,-4.35424 v 4.43347 h -0.45019 v -5.04213 h 0.68789 z"
           id="path2339-1"
           style="font-weight:300;font-size:8.66608px;font-family:'Henry Sans';-inkscape-font-specification:'Henry Sans Light';font-variation-settings:normal;vector-effect:none;fill:#0030ff;fill-opacity:1;stroke-width:2.1023;stroke-linecap:butt;stroke-linejoin:miter;stroke-miterlimit:4;stroke-dasharray:none;stroke-dashoffset:0;stroke-opacity:1;-inkscape-stroke:none;paint-order:stroke fill markers;stop-color:#000000;stop-opacity:1" /><path
           d="m 493.49989,221.9521 h -0.4826 l -0.60866,-1.68551 h -2.06727 l -0.60866,1.68551 h -0.46819 l 1.83677,-5.04213 h 0.56184 z m -2.12489,-4.53431 -0.88238,2.43102 h 1.76475 z"
           id="path2341-3"
           style="font-weight:300;font-size:8.66608px;font-family:'Henry Sans';-inkscape-font-specification:'Henry Sans Light';font-variation-settings:normal;vector-effect:none;fill:#0030ff;fill-opacity:1;stroke-width:2.1023;stroke-linecap:butt;stroke-linejoin:miter;stroke-miterlimit:4;stroke-dasharray:none;stroke-dashoffset:0;stroke-opacity:1;-inkscape-stroke:none;paint-order:stroke fill markers;stop-color:#000000;stop-opacity:1" /><path
           d="m 497.29641,221.9521 -1.51264,-2.1321 h -1.10927 v 2.1321 h -0.46099 v -5.04213 h 1.98804 q 0.4718,0 0.82835,0.18368 0.36015,0.18008 0.55823,0.51142 0.19809,0.32773 0.19809,0.75992 0,0.41057 -0.18008,0.7311 -0.17647,0.31694 -0.50781,0.50782 -0.32774,0.18728 -0.75992,0.21249 l 1.52704,2.1357 z m -2.62191,-4.62435 v 2.07447 h 1.54866 q 0.32413,0 0.56904,-0.12965 0.2485,-0.13326 0.38176,-0.37096 0.13686,-0.2377 0.13686,-0.55103 0,-0.30253 -0.13686,-0.53302 -0.13326,-0.2341 -0.38176,-0.36016 -0.24491,-0.12965 -0.56904,-0.12965 z"
           id="path2343-0"
           style="font-weight:300;font-size:8.66608px;font-family:'Henry Sans';-inkscape-font-specification:'Henry Sans Light';font-variation-settings:normal;vector-effect:none;fill:#0030ff;fill-opacity:1;stroke-width:2.1023;stroke-linecap:butt;stroke-linejoin:miter;stroke-miterlimit:4;stroke-dasharray:none;stroke-dashoffset:0;stroke-opacity:1;-inkscape-stroke:none;paint-order:stroke fill markers;stop-color:#000000;stop-opacity:1" /><path
           d="m 502.33603,221.9521 h -0.64108 l -1.9304,-2.48505 -0.56905,0.60866 v 1.87639 h -0.46099 v -5.04213 h 0.46099 v 2.55348 l 2.31938,-2.55348 h 0.62666 l -2.06007,2.21134 z"
           id="path2345-4"
           style="font-weight:300;font-size:8.66608px;font-family:'Henry Sans';-inkscape-font-specification:'Henry Sans Light';font-variation-settings:normal;vector-effect:none;fill:#0030ff;fill-opacity:1;stroke-width:2.1023;stroke-linecap:butt;stroke-linejoin:miter;stroke-miterlimit:4;stroke-dasharray:none;stroke-dashoffset:0;stroke-opacity:1;-inkscape-stroke:none;paint-order:stroke fill markers;stop-color:#000000;stop-opacity:1" /><path
           d="m 503.44551,219.56069 v 1.97363 h 2.72275 v 0.41778 h -3.18375 v -5.04213 h 3.16934 v 0.41778 h -2.70834 v 1.81516 h 2.3626 v 0.41778 z"
           id="path2347-3"
           style="font-weight:300;font-size:8.66608px;font-family:'Henry Sans';-inkscape-font-specification:'Henry Sans Light';font-variation-settings:normal;vector-effect:none;fill:#0030ff;fill-opacity:1;stroke-width:2.1023;stroke-linecap:butt;stroke-linejoin:miter;stroke-miterlimit:4;stroke-dasharray:none;stroke-dashoffset:0;stroke-opacity:1;-inkscape-stroke:none;paint-order:stroke fill markers;stop-color:#000000;stop-opacity:1" /><path
           d="m 510.3389,216.90997 v 0.41778 h -1.65669 v 4.62435 h -0.461 v -4.62435 h -1.6567 v -0.41778 z"
           id="path2349-1"
           style="font-weight:300;font-size:8.66608px;font-family:'Henry Sans';-inkscape-font-specification:'Henry Sans Light';font-variation-settings:normal;vector-effect:none;fill:#0030ff;fill-opacity:1;stroke-width:2.1023;stroke-linecap:butt;stroke-linejoin:miter;stroke-miterlimit:4;stroke-dasharray:none;stroke-dashoffset:0;stroke-opacity:1;-inkscape-stroke:none;paint-order:stroke fill markers;stop-color:#000000;stop-opacity:1" /></g></g></g></svg>
